<svg width="81" height="81" viewBox="0 0 81 81" fill="none" xmlns="http://www.w3.org/2000/svg">
<path d="M40.5 80.0835C34.5152 80.1003 28.6061 78.7462 23.2258 76.125C21.2567 75.1673 19.3701 74.0485 17.5852 72.7802L17.0429 72.3844C12.1339 68.761 8.12032 64.0609 5.3104 58.645C2.40394 53.0395 0.896497 46.8142 0.916455 40.5C0.916455 18.6387 18.6387 0.916672 40.5 0.916672C62.3613 0.916672 80.0835 18.6387 80.0835 40.5C80.1033 46.8111 78.5972 53.0336 75.6935 58.6371C72.8875 64.0498 68.8796 68.7483 63.9769 72.3725C62.1274 73.7263 60.1647 74.9182 58.1106 75.935L57.7939 76.0933C52.4103 78.7284 46.4939 80.0934 40.5 80.0835ZM40.5 60.2916C34.5683 60.2801 29.1303 63.593 26.4202 68.8694C35.2924 73.2639 45.7076 73.2639 54.5798 68.8694V68.8496C51.8663 63.579 46.4281 60.2735 40.5 60.2916ZM40.5 52.375C49.0742 52.3862 56.9802 57.0067 61.1981 64.4717L61.2575 64.4202L61.3129 64.3727L61.2456 64.4321L61.206 64.4638C71.2166 55.8152 74.7961 41.8551 70.1821 29.4567C65.5681 17.0583 53.7331 8.83459 40.5039 8.83459C27.2748 8.83459 15.4398 17.0583 10.8258 29.4567C6.21175 41.8551 9.79125 55.8152 19.8019 64.4638C24.0225 57.0024 31.9277 52.3854 40.5 52.375ZM40.5 48.4167C31.7555 48.4167 24.6667 41.3278 24.6667 32.5833C24.6667 23.8388 31.7555 16.75 40.5 16.75C49.2445 16.75 56.3333 23.8388 56.3333 32.5833C56.3333 36.7826 54.6652 40.8099 51.6958 43.7792C48.7265 46.7485 44.6992 48.4167 40.5 48.4167ZM40.5 24.6667C36.1277 24.6667 32.5833 28.2111 32.5833 32.5833C32.5833 36.9556 36.1277 40.5 40.5 40.5C44.8722 40.5 48.4167 36.9556 48.4167 32.5833C48.4167 28.2111 44.8722 24.6667 40.5 24.6667Z" fill="white"/>
</svg>
