<svg width="75" height="75" viewBox="0 0 75 75" fill="none" xmlns="http://www.w3.org/2000/svg">
<path d="M58.3656 61.2719L40.5063 43.4094C32.5615 49.0577 21.6139 47.6761 15.3215 40.231C9.02909 32.786 9.49112 21.7612 16.3844 14.8688C23.2758 7.97327 34.3016 7.50924 41.7481 13.8013C49.1945 20.0934 50.5769 31.042 44.9281 38.9875L62.7875 56.85L58.3688 61.2688L58.3656 61.2719ZM29.6406 15.625C23.7147 15.6236 18.6022 19.7834 17.3984 25.5857C16.1946 31.3881 19.2303 37.2383 24.6677 39.5945C30.1051 41.9506 36.4497 40.1651 39.8601 35.3189C43.2706 30.4727 42.8096 23.8979 38.7563 19.575L40.6469 21.45L38.5156 19.325L38.4781 19.2875C36.14 16.9349 32.9575 15.616 29.6406 15.625Z" fill="#86C232"/>
</svg>
